<svg xmlns="http://www.w3.org/2000/svg" xmlns:xlink="http://www.w3.org/1999/xlink" width="133" height="34" viewBox="0 0 133 34"><defs><path id="739aa" d="M60.988 86.426c0-3.167.956-5.668 2.869-7.505 1.912-1.837 4.085-2.755 6.517-2.755 1.494 0 2.723.367 3.686 1.102.962.734 1.444 1.716 1.444 2.944 0 1.23-.31 2.262-.931 3.098a6.499 6.499 0 0 1-2.261 1.938c-1.8.887-3.446 1.444-4.94 1.671l-.912.115c.177 2.381 1.152 3.571 2.926 3.571.608 0 1.254-.152 1.938-.455.684-.304 1.216-.608 1.596-.912l.57-.456.912 1.216c-.203.279-.608.646-1.216 1.102a16.68 16.68 0 0 1-1.71 1.14c-1.47.81-3.078 1.215-4.826 1.215-1.748 0-3.13-.62-4.142-1.861-1.014-1.241-1.52-2.964-1.52-5.168zm5.434-1.254c1.292-.228 2.318-.773 3.078-1.635.76-.86 1.14-1.975 1.14-3.343 0-1.368-.406-2.052-1.216-2.052-.963 0-1.704.817-2.223 2.45-.52 1.635-.779 3.161-.779 4.58zm13.147 8.283c-.887 0-1.57-.266-2.052-.797-.481-.533-.722-1.241-.722-2.128s.33-1.654.988-2.3c.659-.646 1.438-.968 2.337-.968.9 0 1.59.26 2.071.778.481.52.722 1.216.722 2.09 0 .874-.336 1.647-1.007 2.319-.671.67-1.45 1.006-2.337 1.006zm30.476-9.348c-1.191.38-2.306.608-3.344.685-1.115 2.61-2.654 4.706-4.617 6.289-1.964 1.583-4.402 2.374-7.315 2.374-2.914 0-5.137-.981-6.67-2.944-1.532-1.963-2.298-4.687-2.298-8.17 0-3.483.81-6.663 2.432-9.538 1.62-2.875 3.939-5.124 6.954-6.745l.798 1.33c-2.736 3.42-4.104 8.321-4.104 14.706 0 4.155.633 6.802 1.9 7.942.582.557 1.317.835 2.204.835 2.508 0 4.332-2.152 5.472-6.46-1.976-.354-3.496-1.196-4.56-2.527-1.064-1.33-1.596-3.191-1.596-5.586 0-2.393.684-4.546 2.052-6.46 1.368-1.912 3.021-2.869 4.959-2.869 1.938 0 3.451.855 4.54 2.566 1.09 1.71 1.635 3.908 1.635 6.592 0 1.698-.342 3.763-1.026 6.195 1.11-.05 2.387-.423 3.834-1.12.08-.37.164-.75.25-1.141 1.255-5.663 1.882-9.747 1.882-12.256l-.229-1.671c1.977-.684 3.825-1.026 5.548-1.026.253.355.38.975.38 1.862 0 2.027-.64 5.947-1.919 11.76-1.279 5.815-1.919 9.197-1.919 10.146 0 .95.114 1.426.342 1.426l2.66-.95.685 1.33c-.862.684-1.907 1.317-3.135 1.9-1.23.582-2.28.873-3.154.873-.874 0-1.596-.29-2.166-.873-.57-.583-.855-1.4-.855-2.451 0-.788.352-2.871 1.056-6.25-.213.075-.439.15-.676.226zm-8.17-2.127c.405-2.153.608-4.136.608-5.947s-.102-3.155-.304-4.028c-.203-.874-.684-1.311-1.444-1.311-.76 0-1.463.564-2.11 1.69-.645 1.128-.968 2.515-.968 4.162 0 1.647.367 2.932 1.102 3.857.734.925 1.773 1.45 3.116 1.577zm25.345-5.624c.33.38.494 1.102.494 2.166 0 1.064-.342 2.894-1.026 5.49-.684 2.598-1.026 4.294-1.026 5.093 0 .797.114 1.197.342 1.197.152 0 .735-.241 1.748-.722l.456-.228.646 1.33c-.228.203-.532.455-.912.76-.38.304-1.09.715-2.128 1.234-1.039.52-2.001.78-2.888.78s-1.583-.273-2.09-.818c-.507-.544-.76-1.278-.76-2.203 0-.925.317-2.571.95-4.94s.95-3.908.95-4.617c0-1.065-.33-2.065-.988-3.002l-.342-.456.038-.494c1.343-.38 3.521-.57 6.536-.57zm-3.838-4.162c-.507-.493-.76-1.158-.76-1.994 0-.836.348-1.57 1.045-2.204.697-.633 1.501-.95 2.413-.95.912 0 1.621.253 2.128.76.507.507.76 1.172.76 1.995 0 .823-.36 1.552-1.083 2.185-.722.633-1.526.95-2.413.95-.887 0-1.583-.247-2.09-.742zm6.802 4.656c1.368-.457 2.603-.684 3.705-.684 1.102 0 1.925.227 2.47.684.544.456.817 1.393.817 2.812 0 .76-.228 2.312-.684 4.654-.456 2.344-.684 3.77-.684 4.276 0 1.013.202 1.52.608 1.52.962 0 2.02-.716 3.173-2.147 1.152-1.431 1.754-2.628 1.805-3.591l-2.584-2.888c.1-1.09.367-2.077.798-2.964.43-.887.836-1.507 1.216-1.863l.532-.493c1.089 0 1.912.291 2.47.874.557.583.836 1.267.836 2.052 0 2.001-.494 4.117-1.482 6.345-.988 2.23-2.306 4.124-3.952 5.682-1.647 1.557-3.32 2.336-5.016 2.336-1.064 0-1.881-.329-2.451-.987-.57-.659-.855-1.527-.855-2.603 0-1.077.082-2.527.247-4.351a60.49 60.49 0 0 0 .247-5.435c0-.404-.146-.886-.437-1.443-.292-.557-.59-1.001-.893-1.33zm14.82 9.576c0-3.167.956-5.668 2.869-7.505 1.912-1.837 4.085-2.755 6.517-2.755 1.494 0 2.723.367 3.686 1.102.962.734 1.444 1.716 1.444 2.944 0 1.23-.31 2.262-.931 3.098a6.499 6.499 0 0 1-2.261 1.938c-1.8.887-3.446 1.444-4.94 1.671l-.912.115c.177 2.381 1.152 3.571 2.926 3.571.608 0 1.254-.152 1.938-.455.684-.304 1.216-.608 1.596-.912l.57-.456.912 1.216c-.204.279-.608.646-1.216 1.102-.608.455-1.178.836-1.71 1.14-1.47.81-3.078 1.215-4.826 1.215-1.748 0-3.13-.62-4.142-1.861-1.014-1.241-1.52-2.964-1.52-5.168zm5.434-1.254c1.292-.228 2.318-.773 3.078-1.635.76-.86 1.14-1.975 1.14-3.343 0-1.368-.406-2.052-1.216-2.052-.963 0-1.705.817-2.223 2.45-.52 1.635-.78 3.161-.78 4.58zm15.921 7.41c-.887.355-2.647.532-5.282.532h-.266c-.051-.203-.076-.665-.076-1.388 0-.722.342-2.665 1.026-5.832.684-3.167 1.026-4.978 1.026-5.434 0-.785-.355-1.647-1.064-2.584l-.342-.456.038-.494c1.368-.38 3.559-.57 6.574-.57.304.659.456 1.583.456 2.773.279-.455.861-1.063 1.748-1.823s1.799-1.14 2.736-1.14c1.368 0 2.052 1.19 2.052 3.572-.127.152-.298.348-.513.589-.215.24-.646.576-1.292 1.006-.646.432-1.273.698-1.88.799-.026 0-.242-.342-.647-1.026-.405-.684-.71-1.027-.912-1.027a4.114 4.114 0 0 0-1.672 1.14c-1.165 5.245-1.748 8.64-1.748 10.184 0 .558.013.95.038 1.179zm12.383-25.012c-12.281-1.392-26.645 4.04-35.344 4.327-10.91.36-10.734-3.698-10.734-3.698s.942.764 3.263.674c3.109-.121 6.16-.178 9.88-1.108 3.72-.93 30.015-10.043 40.456-5.73 14.802 6.113 3.618 12.696 3.618 12.696s-2.662-6.202-11.14-7.161z"/></defs><g><g transform="translate(-61 -60)"><use fill="#fff" xlink:href="#739aa"/></g></g></svg>